<svg xmlns="http://www.w3.org/2000/svg" viewBox="0 0 37.46 38.31"><defs><style>.cls-1{fill:#1e1e1e;opacity:0.42;}.cls-2{fill:#006934;}.cls-3{fill:#e60012;}</style></defs><g id="图层_2" data-name="图层 2"><rect class="cls-1" x="3.18" y="11.02" width="33.62" height="1.85"/><rect class="cls-1" x="3.56" y="15.22" width="32.43" height="1.74"/><rect class="cls-1" x="3.56" y="19.42" width="31.99" height="1.91"/><rect class="cls-1" x="3.18" y="23.45" width="32.81" height="2.02"/><rect class="cls-1" x="3.18" y="7.15" width="32.04" height="2.23"/><rect class="cls-1" x="3.56" y="27.81" width="30.3" height="1.73"/></g><g id="图层_1" data-name="图层 1"><path class="cls-2" d="M1.23,15l2.9-.66Q4.79,19,9.57,18.9c2.69-.06,4.13-1.16,4.31-3.28.13-1.44-1.16-2.53-3.84-3.28L8.54,12a5,5,0,0,1-.75-.19q-6.28-1.3-5.91-5.34.38-4.87,6.94-5.16,6.56,0,7.69,5.25l-3,.66Q12.85,3.72,9,3.71c-2.44.13-3.78,1-4,2.72Q4.7,8.59,9.57,9.52c1.25.32,2.16.57,2.72.75q4.79,1.5,4.69,5.25-.19,5.36-7.32,5.53Q2.36,21.24,1.23,15Z" transform="translate(-1.23 -1.27)"/><path class="cls-3" d="M32,30.81H16V29l2.62-2.77c6.41-6.48,9.65-10.41,9.65-14.8,0-2.88-1.26-5.54-5.15-5.54a9,9,0,0,0-5.4,2.23L16.73,6a10.55,10.55,0,0,1,7-2.62c5.43,0,7.59,4,7.59,7.66,0,5.08-3.56,9.4-9.14,15L20,28.29v.08H32Z" transform="translate(-1.23 -1.27)"/><path class="cls-2" d="M34.32,10.33h4.36v19q.14,10.41-9.14,10.26-8.71.15-9.7-9l4.22-1.12c.18,4.5,2,6.7,5.34,6.61,3.38.09,5-2.2,4.92-6.89Z" transform="translate(-1.23 -1.27)"/></g></svg>